<svg width="100" height="100" viewBox="0 0 100 100" xmlns="http://www.w3.org/2000/svg">
  <!-- Center Knot -->
  <circle cx="50" cy="50" r="15" fill="#4A90E2"/>
  <circle cx="50" cy="50" r="10" fill="#7FBCFF"/>
  
  <!-- Left Side -->
  <path d="M5,35 Q15,50 5,65 Q25,70 45,50 Q25,30 5,35 Z" fill="#4A90E2"/>
  <path d="M10,40 Q18,50 10,60 Q25,63 40,50 Q25,37 10,40 Z" fill="#7FBCFF"/>
  
  <!-- Right Side -->
  <path d="M95,35 Q85,50 95,65 Q75,70 55,50 Q75,30 95,35 Z" fill="#4A90E2"/>
  <path d="M90,40 Q82,50 90,60 Q75,63 60,50 Q75,37 90,40 Z" fill="#7FBCFF"/>
  
  <!-- Hanging Ribbons -->
  <path d="M45,65 Q50,80 40,95" stroke="#4A90E2" stroke-width="8" fill="none"/>
  <path d="M55,65 Q50,80 60,95" stroke="#4A90E2" stroke-width="8" fill="none"/>
  <path d="M45,65 Q50,80 40,95" stroke="#7FBCFF" stroke-width="4" fill="none"/>
  <path d="M55,65 Q50,80 60,95" stroke="#7FBCFF" stroke-width="4" fill="none"/>
</svg> 